<svg width="46" height="46" viewBox="0 0 46 46" fill="none" xmlns="http://www.w3.org/2000/svg">
<rect x="0.5" y="0.5" width="45" height="45" rx="22.5" stroke="#5035F7"/>
<path d="M11 23H23V25H11V23ZM9 18H19V20H9V18Z" fill="#5035F7"/>
<path d="M36.9184 23.606L33.9184 16.606C33.8413 16.4262 33.7131 16.2729 33.5497 16.1652C33.3864 16.0574 33.195 16 32.9994 16H29.9994V14C29.9994 13.7348 29.894 13.4804 29.7065 13.2929C29.5189 13.1054 29.2646 13 28.9994 13H12.9994V15H27.9994V27.556C27.544 27.8209 27.1454 28.1732 26.8265 28.5926C26.5077 29.0121 26.2748 29.4903 26.1414 30H19.8574C19.614 29.0573 19.0351 28.2358 18.2294 27.6894C17.4236 27.143 16.4462 26.9092 15.4804 27.0319C14.5145 27.1546 13.6266 27.6253 12.983 28.3558C12.3394 29.0863 11.9844 30.0264 11.9844 31C11.9844 31.9736 12.3394 32.9137 12.983 33.6442C13.6266 34.3747 14.5145 34.8454 15.4804 34.9681C16.4462 35.0908 17.4236 34.857 18.2294 34.3106C19.0351 33.7642 19.614 32.9427 19.8574 32H26.1414C26.3589 32.8582 26.8564 33.6194 27.5551 34.1632C28.2539 34.7069 29.114 35.0021 29.9994 35.0021C30.8847 35.0021 31.7448 34.7069 32.4436 34.1632C33.1423 33.6194 33.6398 32.8582 33.8574 32H35.9994C36.2646 32 36.5189 31.8946 36.7065 31.7071C36.894 31.5196 36.9994 31.2652 36.9994 31V24C36.9993 23.8645 36.9718 23.7305 36.9184 23.606ZM15.9994 33C15.6038 33 15.2171 32.8827 14.8882 32.6629C14.5593 32.4432 14.303 32.1308 14.1516 31.7654C14.0002 31.3999 13.9606 30.9978 14.0378 30.6098C14.115 30.2219 14.3054 29.8655 14.5851 29.5858C14.8648 29.3061 15.2212 29.1156 15.6092 29.0384C15.9971 28.9613 16.3993 29.0009 16.7647 29.1522C17.1302 29.3036 17.4425 29.56 17.6623 29.8889C17.8821 30.2178 17.9994 30.6044 17.9994 31C17.9994 31.5304 17.7886 32.0391 17.4136 32.4142C17.0385 32.7893 16.5298 33 15.9994 33ZM29.9994 18H32.3394L34.4834 23H29.9994V18ZM29.9994 33C29.6038 33 29.2171 32.8827 28.8882 32.6629C28.5593 32.4432 28.303 32.1308 28.1516 31.7654C28.0002 31.3999 27.9606 30.9978 28.0378 30.6098C28.115 30.2219 28.3054 29.8655 28.5851 29.5858C28.8648 29.3061 29.2212 29.1156 29.6092 29.0384C29.9971 28.9613 30.3993 29.0009 30.7647 29.1522C31.1302 29.3036 31.4425 29.56 31.6623 29.8889C31.8821 30.2178 31.9994 30.6044 31.9994 31C31.9994 31.5304 31.7886 32.0391 31.4136 32.4142C31.0385 32.7893 30.5298 33 29.9994 33ZM34.9994 30H33.8574C33.6371 29.1434 33.1388 28.3842 32.4406 27.8413C31.7424 27.2983 30.8838 27.0025 29.9994 27V25H34.9994V30Z" fill="#5035F7"/>
</svg>
